<?xml version="1.0" encoding="UTF-8" standalone="no"?>
<!DOCTYPE svg PUBLIC "-//W3C//DTD SVG 1.1//EN"
 "http://www.w3.org/Graphics/SVG/1.1/DTD/svg11.dtd">
<!-- Generated by graphviz version 2.43.0 (0)
 -->
<!-- Title: %3 Pages: 1 -->
<svg width="785pt" height="548pt"
 viewBox="0.00 0.00 785.15 548.00" xmlns="http://www.w3.org/2000/svg" xmlns:xlink="http://www.w3.org/1999/xlink">
<g id="graph0" class="graph" transform="scale(1 1) rotate(0) translate(4 544)">
<title>%3</title>
<polygon fill="white" stroke="transparent" points="-4,4 -4,-544 781.15,-544 781.15,4 -4,4"/>
<!-- 0 -->
<g id="node1" class="node">
<title>0</title>
<ellipse fill="none" stroke="black" cx="154.15" cy="-378" rx="27.1" ry="18"/>
<text text-anchor="middle" x="154.15" y="-374.3" font-family="Times,serif" font-size="14.00">ape</text>
</g>
<!-- 1 -->
<g id="node2" class="node">
<title>1</title>
<ellipse fill="none" stroke="black" cx="137.15" cy="-306" rx="27" ry="18"/>
<text text-anchor="middle" x="137.15" y="-302.3" font-family="Times,serif" font-size="14.00">apt</text>
</g>
<!-- 0&#45;&#45;1 -->
<g id="edge1" class="edge">
<title>0&#45;&#45;1</title>
<path fill="none" stroke="black" d="M150.04,-360.05C147.41,-349.21 144,-335.18 141.35,-324.28"/>
</g>
<!-- 19 -->
<g id="node3" class="node">
<title>19</title>
<ellipse fill="none" stroke="black" cx="137.15" cy="-234" rx="27" ry="18"/>
<text text-anchor="middle" x="137.15" y="-230.3" font-family="Times,serif" font-size="14.00">opt</text>
</g>
<!-- 1&#45;&#45;19 -->
<g id="edge2" class="edge">
<title>1&#45;&#45;19</title>
<path fill="none" stroke="black" d="M137.15,-287.7C137.15,-276.85 137.15,-262.92 137.15,-252.1"/>
</g>
<!-- 2 -->
<g id="node4" class="node">
<title>2</title>
<ellipse fill="none" stroke="black" cx="72.15" cy="-522" rx="27" ry="18"/>
<text text-anchor="middle" x="72.15" y="-518.3" font-family="Times,serif" font-size="14.00">ear</text>
</g>
<!-- 7 -->
<g id="node5" class="node">
<title>7</title>
<ellipse fill="none" stroke="black" cx="333.15" cy="-450" rx="27" ry="18"/>
<text text-anchor="middle" x="333.15" y="-446.3" font-family="Times,serif" font-size="14.00">err</text>
</g>
<!-- 2&#45;&#45;7 -->
<g id="edge3" class="edge">
<title>2&#45;&#45;7</title>
<path fill="none" stroke="black" d="M98.3,-516.68C140.78,-509.27 227.07,-492.5 297.15,-468 302.24,-466.22 307.57,-463.95 312.53,-461.65"/>
</g>
<!-- 8 -->
<g id="node6" class="node">
<title>8</title>
<ellipse fill="none" stroke="black" cx="44.15" cy="-450" rx="27" ry="18"/>
<text text-anchor="middle" x="44.15" y="-446.3" font-family="Times,serif" font-size="14.00">far</text>
</g>
<!-- 2&#45;&#45;8 -->
<g id="edge4" class="edge">
<title>2&#45;&#45;8</title>
<path fill="none" stroke="black" d="M65.52,-504.41C61.06,-493.25 55.2,-478.6 50.74,-467.47"/>
</g>
<!-- 16 -->
<g id="node7" class="node">
<title>16</title>
<ellipse fill="none" stroke="black" cx="82.15" cy="-378" rx="27" ry="18"/>
<text text-anchor="middle" x="82.15" y="-374.3" font-family="Times,serif" font-size="14.00">oar</text>
</g>
<!-- 2&#45;&#45;16 -->
<g id="edge5" class="edge">
<title>2&#45;&#45;16</title>
<path fill="none" stroke="black" d="M75.3,-503.88C77.07,-493.53 79.11,-480.05 80.15,-468 82.31,-443.06 82.54,-414.04 82.41,-396.1"/>
</g>
<!-- 27 -->
<g id="node8" class="node">
<title>27</title>
<ellipse fill="none" stroke="black" cx="46.15" cy="-306" rx="27" ry="18"/>
<text text-anchor="middle" x="46.15" y="-302.3" font-family="Times,serif" font-size="14.00">sar</text>
</g>
<!-- 2&#45;&#45;27 -->
<g id="edge6" class="edge">
<title>2&#45;&#45;27</title>
<path fill="none" stroke="black" d="M51.2,-510.24C36.14,-501.22 16.99,-486.8 8.15,-468 -15.31,-418.1 17.8,-352.49 35.82,-322.8"/>
</g>
<!-- 8&#45;&#45;16 -->
<g id="edge13" class="edge">
<title>8&#45;&#45;16</title>
<path fill="none" stroke="black" d="M52.97,-432.76C59.11,-421.46 67.26,-406.44 73.39,-395.15"/>
</g>
<!-- 8&#45;&#45;27 -->
<g id="edge14" class="edge">
<title>8&#45;&#45;27</title>
<path fill="none" stroke="black" d="M44.4,-431.87C44.78,-404.58 45.53,-351.52 45.91,-324.19"/>
</g>
<!-- 16&#45;&#45;27 -->
<g id="edge25" class="edge">
<title>16&#45;&#45;27</title>
<path fill="none" stroke="black" d="M73.8,-360.76C67.99,-349.46 60.26,-334.44 54.46,-323.15"/>
</g>
<!-- 17 -->
<g id="node22" class="node">
<title>17</title>
<ellipse fill="none" stroke="black" cx="209.15" cy="-306" rx="27" ry="18"/>
<text text-anchor="middle" x="209.15" y="-302.3" font-family="Times,serif" font-size="14.00">oat</text>
</g>
<!-- 16&#45;&#45;17 -->
<g id="edge24" class="edge">
<title>16&#45;&#45;17</title>
<path fill="none" stroke="black" d="M102.28,-365.91C125.92,-352.88 164.92,-331.38 188.7,-318.27"/>
</g>
<!-- 28 -->
<g id="node24" class="node">
<title>28</title>
<ellipse fill="none" stroke="black" cx="219.15" cy="-162" rx="27" ry="18"/>
<text text-anchor="middle" x="219.15" y="-158.3" font-family="Times,serif" font-size="14.00">sat</text>
</g>
<!-- 27&#45;&#45;28 -->
<g id="edge38" class="edge">
<title>27&#45;&#45;28</title>
<path fill="none" stroke="black" d="M52.74,-288.51C61.3,-268.92 77.93,-236.35 101.15,-216 128.51,-192.02 168.5,-177.16 194.18,-169.49"/>
</g>
<!-- 3 -->
<g id="node9" class="node">
<title>3</title>
<ellipse fill="none" stroke="black" cx="477.15" cy="-522" rx="27" ry="18"/>
<text text-anchor="middle" x="477.15" y="-518.3" font-family="Times,serif" font-size="14.00">eel</text>
</g>
<!-- 4 -->
<g id="node10" class="node">
<title>4</title>
<ellipse fill="none" stroke="black" cx="477.15" cy="-450" rx="27.1" ry="18"/>
<text text-anchor="middle" x="477.15" y="-446.3" font-family="Times,serif" font-size="14.00">een</text>
</g>
<!-- 3&#45;&#45;4 -->
<g id="edge7" class="edge">
<title>3&#45;&#45;4</title>
<path fill="none" stroke="black" d="M477.15,-503.7C477.15,-492.85 477.15,-478.92 477.15,-468.1"/>
</g>
<!-- 5 -->
<g id="node11" class="node">
<title>5</title>
<ellipse fill="none" stroke="black" cx="650.15" cy="-450" rx="27" ry="18"/>
<text text-anchor="middle" x="650.15" y="-446.3" font-family="Times,serif" font-size="14.00">ell</text>
</g>
<!-- 3&#45;&#45;5 -->
<g id="edge8" class="edge">
<title>3&#45;&#45;5</title>
<path fill="none" stroke="black" d="M499.77,-511.85C532.93,-498.43 594.37,-473.57 627.53,-460.15"/>
</g>
<!-- 21 -->
<g id="node12" class="node">
<title>21</title>
<ellipse fill="none" stroke="black" cx="457.15" cy="-378" rx="27.9" ry="18"/>
<text text-anchor="middle" x="457.15" y="-374.3" font-family="Times,serif" font-size="14.00">pen</text>
</g>
<!-- 4&#45;&#45;21 -->
<g id="edge9" class="edge">
<title>4&#45;&#45;21</title>
<path fill="none" stroke="black" d="M472.31,-432.05C469.17,-421.05 465.09,-406.76 461.95,-395.79"/>
</g>
<!-- 11 -->
<g id="node13" class="node">
<title>11</title>
<ellipse fill="none" stroke="black" cx="678.15" cy="-378" rx="27" ry="18"/>
<text text-anchor="middle" x="678.15" y="-374.3" font-family="Times,serif" font-size="14.00">ill</text>
</g>
<!-- 5&#45;&#45;11 -->
<g id="edge10" class="edge">
<title>5&#45;&#45;11</title>
<path fill="none" stroke="black" d="M656.79,-432.41C661.25,-421.25 667.11,-406.6 671.57,-395.47"/>
</g>
<!-- 24 -->
<g id="node27" class="node">
<title>24</title>
<ellipse fill="none" stroke="black" cx="513.15" cy="-306" rx="27" ry="18"/>
<text text-anchor="middle" x="513.15" y="-302.3" font-family="Times,serif" font-size="14.00">pin</text>
</g>
<!-- 21&#45;&#45;24 -->
<g id="edge30" class="edge">
<title>21&#45;&#45;24</title>
<path fill="none" stroke="black" d="M469.58,-361.46C478.86,-349.86 491.49,-334.08 500.76,-322.49"/>
</g>
<!-- 6 -->
<g id="node14" class="node">
<title>6</title>
<ellipse fill="none" stroke="black" cx="333.15" cy="-522" rx="27" ry="18"/>
<text text-anchor="middle" x="333.15" y="-518.3" font-family="Times,serif" font-size="14.00">ere</text>
</g>
<!-- 6&#45;&#45;7 -->
<g id="edge11" class="edge">
<title>6&#45;&#45;7</title>
<path fill="none" stroke="black" d="M333.15,-503.7C333.15,-492.85 333.15,-478.92 333.15,-468.1"/>
</g>
<!-- 20 -->
<g id="node15" class="node">
<title>20</title>
<ellipse fill="none" stroke="black" cx="405.15" cy="-450" rx="27" ry="18"/>
<text text-anchor="middle" x="405.15" y="-446.3" font-family="Times,serif" font-size="14.00">ore</text>
</g>
<!-- 6&#45;&#45;20 -->
<g id="edge12" class="edge">
<title>6&#45;&#45;20</title>
<path fill="none" stroke="black" d="M347.72,-506.83C360.13,-494.77 377.88,-477.51 390.36,-465.38"/>
</g>
<!-- 9 -->
<g id="node16" class="node">
<title>9</title>
<ellipse fill="none" stroke="black" cx="319.15" cy="-90" rx="27" ry="18"/>
<text text-anchor="middle" x="319.15" y="-86.3" font-family="Times,serif" font-size="14.00">hot</text>
</g>
<!-- 31 -->
<g id="node17" class="node">
<title>31</title>
<ellipse fill="none" stroke="black" cx="247.15" cy="-18" rx="27" ry="18"/>
<text text-anchor="middle" x="247.15" y="-14.3" font-family="Times,serif" font-size="14.00">sot</text>
</g>
<!-- 9&#45;&#45;31 -->
<g id="edge15" class="edge">
<title>9&#45;&#45;31</title>
<path fill="none" stroke="black" d="M304.58,-74.83C292.17,-62.77 274.42,-45.51 261.95,-33.38"/>
</g>
<!-- 10 -->
<g id="node18" class="node">
<title>10</title>
<ellipse fill="none" stroke="black" cx="741.15" cy="-450" rx="27" ry="18"/>
<text text-anchor="middle" x="741.15" y="-446.3" font-family="Times,serif" font-size="14.00">ilk</text>
</g>
<!-- 10&#45;&#45;11 -->
<g id="edge16" class="edge">
<title>10&#45;&#45;11</title>
<path fill="none" stroke="black" d="M727.79,-434.15C717.1,-422.28 702.18,-405.7 691.5,-393.82"/>
</g>
<!-- 12 -->
<g id="node19" class="node">
<title>12</title>
<ellipse fill="none" stroke="black" cx="750.15" cy="-378" rx="27" ry="18"/>
<text text-anchor="middle" x="750.15" y="-374.3" font-family="Times,serif" font-size="14.00">ink</text>
</g>
<!-- 10&#45;&#45;12 -->
<g id="edge17" class="edge">
<title>10&#45;&#45;12</title>
<path fill="none" stroke="black" d="M743.33,-432.05C744.73,-421.21 746.53,-407.18 747.93,-396.28"/>
</g>
<!-- 13 -->
<g id="node20" class="node">
<title>13</title>
<ellipse fill="none" stroke="black" cx="257.15" cy="-450" rx="30.59" ry="18"/>
<text text-anchor="middle" x="257.15" y="-446.3" font-family="Times,serif" font-size="14.00">man</text>
</g>
<!-- 14 -->
<g id="node21" class="node">
<title>14</title>
<ellipse fill="none" stroke="black" cx="266.15" cy="-378" rx="28.7" ry="18"/>
<text text-anchor="middle" x="266.15" y="-374.3" font-family="Times,serif" font-size="14.00">mat</text>
</g>
<!-- 13&#45;&#45;14 -->
<g id="edge18" class="edge">
<title>13&#45;&#45;14</title>
<path fill="none" stroke="black" d="M259.38,-431.7C260.77,-420.85 262.56,-406.92 263.95,-396.1"/>
</g>
<!-- 14&#45;&#45;17 -->
<g id="edge19" class="edge">
<title>14&#45;&#45;17</title>
<path fill="none" stroke="black" d="M253.5,-361.46C244.06,-349.86 231.21,-334.08 221.77,-322.49"/>
</g>
<!-- 26 -->
<g id="node23" class="node">
<title>26</title>
<ellipse fill="none" stroke="black" cx="247.15" cy="-234" rx="27" ry="18"/>
<text text-anchor="middle" x="247.15" y="-230.3" font-family="Times,serif" font-size="14.00">rat</text>
</g>
<!-- 14&#45;&#45;26 -->
<g id="edge20" class="edge">
<title>14&#45;&#45;26</title>
<path fill="none" stroke="black" d="M263.86,-359.87C260.21,-332.58 253.11,-279.52 249.45,-252.19"/>
</g>
<!-- 14&#45;&#45;28 -->
<g id="edge21" class="edge">
<title>14&#45;&#45;28</title>
<path fill="none" stroke="black" d="M273.3,-360.53C285.29,-330.29 306,-264.58 283.15,-216 274.31,-197.2 255.17,-182.78 240.11,-173.76"/>
</g>
<!-- 17&#45;&#45;19 -->
<g id="edge26" class="edge">
<title>17&#45;&#45;19</title>
<path fill="none" stroke="black" d="M194.58,-290.83C182.17,-278.77 164.42,-261.51 151.95,-249.38"/>
</g>
<!-- 17&#45;&#45;26 -->
<g id="edge27" class="edge">
<title>17&#45;&#45;26</title>
<path fill="none" stroke="black" d="M217.97,-288.76C224.11,-277.46 232.26,-262.44 238.39,-251.15"/>
</g>
<!-- 17&#45;&#45;28 -->
<g id="edge28" class="edge">
<title>17&#45;&#45;28</title>
<path fill="none" stroke="black" d="M208.89,-287.9C208.77,-269.96 209,-240.94 211.15,-216 212.19,-203.95 214.24,-190.47 216,-180.12"/>
</g>
<!-- 26&#45;&#45;28 -->
<g id="edge37" class="edge">
<title>26&#45;&#45;28</title>
<path fill="none" stroke="black" d="M240.52,-216.41C236.06,-205.25 230.2,-190.6 225.74,-179.47"/>
</g>
<!-- 28&#45;&#45;31 -->
<g id="edge40" class="edge">
<title>28&#45;&#45;31</title>
<path fill="none" stroke="black" d="M213.9,-144.2C209.06,-126 203.68,-96.32 211.15,-72 215.54,-57.75 225.19,-43.9 233.4,-33.93"/>
</g>
<!-- 30 -->
<g id="node31" class="node">
<title>30</title>
<ellipse fill="none" stroke="black" cx="247.15" cy="-90" rx="27" ry="18"/>
<text text-anchor="middle" x="247.15" y="-86.3" font-family="Times,serif" font-size="14.00">set</text>
</g>
<!-- 28&#45;&#45;30 -->
<g id="edge39" class="edge">
<title>28&#45;&#45;30</title>
<path fill="none" stroke="black" d="M225.79,-144.41C230.25,-133.25 236.11,-118.6 240.57,-107.47"/>
</g>
<!-- 15 -->
<g id="node25" class="node">
<title>15</title>
<ellipse fill="none" stroke="black" cx="172.15" cy="-450" rx="27" ry="18"/>
<text text-anchor="middle" x="172.15" y="-446.3" font-family="Times,serif" font-size="14.00">oak</text>
</g>
<!-- 15&#45;&#45;16 -->
<g id="edge22" class="edge">
<title>15&#45;&#45;16</title>
<path fill="none" stroke="black" d="M155.23,-435.83C139.14,-423.32 115.07,-404.6 99.01,-392.11"/>
</g>
<!-- 15&#45;&#45;17 -->
<g id="edge23" class="edge">
<title>15&#45;&#45;17</title>
<path fill="none" stroke="black" d="M178.33,-432.45C182.07,-422.07 186.75,-408.37 190.15,-396 196.95,-371.32 202.76,-342.24 206.1,-324.21"/>
</g>
<!-- 18 -->
<g id="node26" class="node">
<title>18</title>
<ellipse fill="none" stroke="black" cx="405.15" cy="-522" rx="27.1" ry="18"/>
<text text-anchor="middle" x="405.15" y="-518.3" font-family="Times,serif" font-size="14.00">one</text>
</g>
<!-- 18&#45;&#45;20 -->
<g id="edge29" class="edge">
<title>18&#45;&#45;20</title>
<path fill="none" stroke="black" d="M405.15,-503.7C405.15,-492.85 405.15,-478.92 405.15,-468.1"/>
</g>
<!-- 25 -->
<g id="node30" class="node">
<title>25</title>
<ellipse fill="none" stroke="black" cx="568.15" cy="-234" rx="27" ry="18"/>
<text text-anchor="middle" x="568.15" y="-230.3" font-family="Times,serif" font-size="14.00">pit</text>
</g>
<!-- 24&#45;&#45;25 -->
<g id="edge36" class="edge">
<title>24&#45;&#45;25</title>
<path fill="none" stroke="black" d="M525.09,-289.81C534.31,-278.07 547.02,-261.89 556.24,-250.16"/>
</g>
<!-- 22 -->
<g id="node28" class="node">
<title>22</title>
<ellipse fill="none" stroke="black" cx="568.15" cy="-450" rx="27" ry="18"/>
<text text-anchor="middle" x="568.15" y="-446.3" font-family="Times,serif" font-size="14.00">pie</text>
</g>
<!-- 22&#45;&#45;24 -->
<g id="edge32" class="edge">
<title>22&#45;&#45;24</title>
<path fill="none" stroke="black" d="M555.41,-433.7C547.6,-423.59 538.01,-409.71 532.15,-396 521.98,-372.17 517.04,-342.35 514.81,-323.99"/>
</g>
<!-- 23 -->
<g id="node29" class="node">
<title>23</title>
<ellipse fill="none" stroke="black" cx="568.15" cy="-378" rx="27" ry="18"/>
<text text-anchor="middle" x="568.15" y="-374.3" font-family="Times,serif" font-size="14.00">pig</text>
</g>
<!-- 22&#45;&#45;23 -->
<g id="edge31" class="edge">
<title>22&#45;&#45;23</title>
<path fill="none" stroke="black" d="M568.15,-431.7C568.15,-420.85 568.15,-406.92 568.15,-396.1"/>
</g>
<!-- 22&#45;&#45;25 -->
<g id="edge33" class="edge">
<title>22&#45;&#45;25</title>
<path fill="none" stroke="black" d="M581.9,-434.07C590.11,-424.1 599.77,-410.25 604.15,-396 620.15,-343.98 592.57,-280.49 577.29,-251.21"/>
</g>
<!-- 23&#45;&#45;24 -->
<g id="edge34" class="edge">
<title>23&#45;&#45;24</title>
<path fill="none" stroke="black" d="M556.22,-361.81C546.99,-350.07 534.28,-333.89 525.06,-322.16"/>
</g>
<!-- 23&#45;&#45;25 -->
<g id="edge35" class="edge">
<title>23&#45;&#45;25</title>
<path fill="none" stroke="black" d="M568.15,-359.87C568.15,-332.58 568.15,-279.52 568.15,-252.19"/>
</g>
<!-- 30&#45;&#45;31 -->
<g id="edge43" class="edge">
<title>30&#45;&#45;31</title>
<path fill="none" stroke="black" d="M247.15,-71.7C247.15,-60.85 247.15,-46.92 247.15,-36.1"/>
</g>
<!-- 29 -->
<g id="node32" class="node">
<title>29</title>
<ellipse fill="none" stroke="black" cx="341.15" cy="-162" rx="27" ry="18"/>
<text text-anchor="middle" x="341.15" y="-158.3" font-family="Times,serif" font-size="14.00">sea</text>
</g>
<!-- 29&#45;&#45;30 -->
<g id="edge41" class="edge">
<title>29&#45;&#45;30</title>
<path fill="none" stroke="black" d="M323.47,-147.83C306.56,-135.24 281.22,-116.37 264.44,-103.87"/>
</g>
<!-- 32 -->
<g id="node33" class="node">
<title>32</title>
<ellipse fill="none" stroke="black" cx="391.15" cy="-90" rx="27" ry="18"/>
<text text-anchor="middle" x="391.15" y="-86.3" font-family="Times,serif" font-size="14.00">tea</text>
</g>
<!-- 29&#45;&#45;32 -->
<g id="edge42" class="edge">
<title>29&#45;&#45;32</title>
<path fill="none" stroke="black" d="M352.25,-145.46C360.54,-133.86 371.81,-118.08 380.09,-106.49"/>
</g>
</g>
</svg>
