<?xml version="1.0" encoding="UTF-8" standalone="no"?>
<!DOCTYPE svg PUBLIC "-//W3C//DTD SVG 1.1//EN"
 "http://www.w3.org/Graphics/SVG/1.1/DTD/svg11.dtd">
<!-- Generated by graphviz version 2.43.0 (0)
 -->
<!-- Title: %3 Pages: 1 -->
<svg width="534pt" height="548pt"
 viewBox="0.00 0.00 534.34 548.00" xmlns="http://www.w3.org/2000/svg" xmlns:xlink="http://www.w3.org/1999/xlink">
<g id="graph0" class="graph" transform="scale(1 1) rotate(0) translate(4 544)">
<title>%3</title>
<polygon fill="white" stroke="transparent" points="-4,4 -4,-544 530.34,-544 530.34,4 -4,4"/>
<!-- 0 -->
<g id="node1" class="node">
<title>0</title>
<ellipse fill="none" stroke="black" cx="190.45" cy="-162" rx="30.59" ry="18"/>
<text text-anchor="middle" x="190.45" y="-158.3" font-family="Times,serif" font-size="14.00">cork</text>
</g>
<!-- 13 -->
<g id="node2" class="node">
<title>13</title>
<ellipse fill="none" stroke="black" cx="268.45" cy="-90" rx="29.5" ry="18"/>
<text text-anchor="middle" x="268.45" y="-86.3" font-family="Times,serif" font-size="14.00">fork</text>
</g>
<!-- 0&#45;&#45;13 -->
<g id="edge1" class="edge">
<title>0&#45;&#45;13</title>
<path fill="none" stroke="black" d="M206.61,-146.5C220.08,-134.4 239.18,-117.27 252.57,-105.25"/>
</g>
<!-- 24 -->
<g id="node3" class="node">
<title>24</title>
<ellipse fill="none" stroke="black" cx="190.45" cy="-18" rx="33.6" ry="18"/>
<text text-anchor="middle" x="190.45" y="-14.3" font-family="Times,serif" font-size="14.00">work</text>
</g>
<!-- 0&#45;&#45;24 -->
<g id="edge2" class="edge">
<title>0&#45;&#45;24</title>
<path fill="none" stroke="black" d="M190.45,-143.87C190.45,-116.58 190.45,-63.52 190.45,-36.19"/>
</g>
<!-- 13&#45;&#45;24 -->
<g id="edge28" class="edge">
<title>13&#45;&#45;24</title>
<path fill="none" stroke="black" d="M252.66,-74.83C239.4,-62.93 220.5,-45.97 207.02,-33.87"/>
</g>
<!-- 14 -->
<g id="node20" class="node">
<title>14</title>
<ellipse fill="none" stroke="black" cx="344.45" cy="-18" rx="27.9" ry="18"/>
<text text-anchor="middle" x="344.45" y="-14.3" font-family="Times,serif" font-size="14.00">fort</text>
</g>
<!-- 13&#45;&#45;14 -->
<g id="edge27" class="edge">
<title>13&#45;&#45;14</title>
<path fill="none" stroke="black" d="M284.19,-74.5C297.32,-62.4 315.93,-45.27 328.98,-33.25"/>
</g>
<!-- 1 -->
<g id="node4" class="node">
<title>1</title>
<ellipse fill="none" stroke="black" cx="299.45" cy="-522" rx="30.59" ry="18"/>
<text text-anchor="middle" x="299.45" y="-518.3" font-family="Times,serif" font-size="14.00">feed</text>
</g>
<!-- 5 -->
<g id="node5" class="node">
<title>5</title>
<ellipse fill="none" stroke="black" cx="349.45" cy="-450" rx="27.9" ry="18"/>
<text text-anchor="middle" x="349.45" y="-446.3" font-family="Times,serif" font-size="14.00">fled</text>
</g>
<!-- 1&#45;&#45;5 -->
<g id="edge3" class="edge">
<title>1&#45;&#45;5</title>
<path fill="none" stroke="black" d="M310.79,-505.12C318.98,-493.66 329.97,-478.26 338.15,-466.82"/>
</g>
<!-- 19 -->
<g id="node6" class="node">
<title>19</title>
<ellipse fill="none" stroke="black" cx="226.45" cy="-450" rx="35.19" ry="18"/>
<text text-anchor="middle" x="226.45" y="-446.3" font-family="Times,serif" font-size="14.00">weed</text>
</g>
<!-- 1&#45;&#45;19 -->
<g id="edge4" class="edge">
<title>1&#45;&#45;19</title>
<path fill="none" stroke="black" d="M283.97,-506.15C271.74,-494.44 254.75,-478.14 242.41,-466.31"/>
</g>
<!-- 6 -->
<g id="node11" class="node">
<title>6</title>
<ellipse fill="none" stroke="black" cx="460.45" cy="-378" rx="27.1" ry="18"/>
<text text-anchor="middle" x="460.45" y="-374.3" font-family="Times,serif" font-size="14.00">flee</text>
</g>
<!-- 5&#45;&#45;6 -->
<g id="edge10" class="edge">
<title>5&#45;&#45;6</title>
<path fill="none" stroke="black" d="M368.78,-436.81C389.15,-423.96 421.04,-403.85 441.33,-391.05"/>
</g>
<!-- 7 -->
<g id="node12" class="node">
<title>7</title>
<ellipse fill="none" stroke="black" cx="405.45" cy="-306" rx="29.8" ry="18"/>
<text text-anchor="middle" x="405.45" y="-302.3" font-family="Times,serif" font-size="14.00">flew</text>
</g>
<!-- 5&#45;&#45;7 -->
<g id="edge11" class="edge">
<title>5&#45;&#45;7</title>
<path fill="none" stroke="black" d="M355.98,-432.43C366.71,-405.22 387.96,-351.33 398.78,-323.9"/>
</g>
<!-- 20 -->
<g id="node24" class="node">
<title>20</title>
<ellipse fill="none" stroke="black" cx="179.45" cy="-378" rx="32.49" ry="18"/>
<text text-anchor="middle" x="179.45" y="-374.3" font-family="Times,serif" font-size="14.00">weld</text>
</g>
<!-- 19&#45;&#45;20 -->
<g id="edge31" class="edge">
<title>19&#45;&#45;20</title>
<path fill="none" stroke="black" d="M215.55,-432.76C207.95,-421.46 197.87,-406.44 190.29,-395.15"/>
</g>
<!-- 2 -->
<g id="node7" class="node">
<title>2</title>
<ellipse fill="none" stroke="black" cx="224.45" cy="-234" rx="27" ry="18"/>
<text text-anchor="middle" x="224.45" y="-230.3" font-family="Times,serif" font-size="14.00">fire</text>
</g>
<!-- 3 -->
<g id="node8" class="node">
<title>3</title>
<ellipse fill="none" stroke="black" cx="114.45" cy="-162" rx="27.1" ry="18"/>
<text text-anchor="middle" x="114.45" y="-158.3" font-family="Times,serif" font-size="14.00">five</text>
</g>
<!-- 2&#45;&#45;3 -->
<g id="edge5" class="edge">
<title>2&#45;&#45;3</title>
<path fill="none" stroke="black" d="M205.29,-220.81C185.1,-207.96 153.49,-187.85 133.39,-175.05"/>
</g>
<!-- 12 -->
<g id="node9" class="node">
<title>12</title>
<ellipse fill="none" stroke="black" cx="268.45" cy="-162" rx="29.5" ry="18"/>
<text text-anchor="middle" x="268.45" y="-158.3" font-family="Times,serif" font-size="14.00">fore</text>
</g>
<!-- 2&#45;&#45;12 -->
<g id="edge6" class="edge">
<title>2&#45;&#45;12</title>
<path fill="none" stroke="black" d="M234.43,-217.12C241.53,-205.82 251.04,-190.7 258.2,-179.31"/>
</g>
<!-- 12&#45;&#45;13 -->
<g id="edge25" class="edge">
<title>12&#45;&#45;13</title>
<path fill="none" stroke="black" d="M268.45,-143.7C268.45,-132.85 268.45,-118.92 268.45,-108.1"/>
</g>
<!-- 12&#45;&#45;14 -->
<g id="edge26" class="edge">
<title>12&#45;&#45;14</title>
<path fill="none" stroke="black" d="M281.04,-145.37C288.94,-135.12 299,-121.22 306.45,-108 319.96,-83.99 331.76,-54.22 338.49,-35.92"/>
</g>
<!-- 4 -->
<g id="node10" class="node">
<title>4</title>
<ellipse fill="none" stroke="black" cx="405.45" cy="-522" rx="27.1" ry="18"/>
<text text-anchor="middle" x="405.45" y="-518.3" font-family="Times,serif" font-size="14.00">flea</text>
</g>
<!-- 4&#45;&#45;5 -->
<g id="edge7" class="edge">
<title>4&#45;&#45;5</title>
<path fill="none" stroke="black" d="M393.3,-505.81C384.03,-494.23 371.32,-478.34 361.96,-466.64"/>
</g>
<!-- 4&#45;&#45;6 -->
<g id="edge8" class="edge">
<title>4&#45;&#45;6</title>
<path fill="none" stroke="black" d="M411.86,-504.43C422.41,-477.22 443.28,-423.33 453.9,-395.9"/>
</g>
<!-- 4&#45;&#45;7 -->
<g id="edge9" class="edge">
<title>4&#45;&#45;7</title>
<path fill="none" stroke="black" d="M405.45,-503.85C405.45,-463.78 405.45,-364.38 405.45,-324.23"/>
</g>
<!-- 6&#45;&#45;7 -->
<g id="edge12" class="edge">
<title>6&#45;&#45;7</title>
<path fill="none" stroke="black" d="M448.51,-361.81C439.41,-350.23 426.92,-334.34 417.74,-322.64"/>
</g>
<!-- 17 -->
<g id="node13" class="node">
<title>17</title>
<ellipse fill="none" stroke="black" cx="491.45" cy="-306" rx="29.5" ry="18"/>
<text text-anchor="middle" x="491.45" y="-302.3" font-family="Times,serif" font-size="14.00">free</text>
</g>
<!-- 6&#45;&#45;17 -->
<g id="edge13" class="edge">
<title>6&#45;&#45;17</title>
<path fill="none" stroke="black" d="M467.79,-360.41C472.74,-349.25 479.22,-334.6 484.15,-323.47"/>
</g>
<!-- 18 -->
<g id="node23" class="node">
<title>18</title>
<ellipse fill="none" stroke="black" cx="496.45" cy="-234" rx="29.8" ry="18"/>
<text text-anchor="middle" x="496.45" y="-230.3" font-family="Times,serif" font-size="14.00">tree</text>
</g>
<!-- 17&#45;&#45;18 -->
<g id="edge30" class="edge">
<title>17&#45;&#45;18</title>
<path fill="none" stroke="black" d="M492.68,-287.7C493.46,-276.85 494.45,-262.92 495.23,-252.1"/>
</g>
<!-- 8 -->
<g id="node14" class="node">
<title>8</title>
<ellipse fill="none" stroke="black" cx="310.45" cy="-306" rx="30.59" ry="18"/>
<text text-anchor="middle" x="310.45" y="-302.3" font-family="Times,serif" font-size="14.00">food</text>
</g>
<!-- 9 -->
<g id="node15" class="node">
<title>9</title>
<ellipse fill="none" stroke="black" cx="420.45" cy="-234" rx="27.9" ry="18"/>
<text text-anchor="middle" x="420.45" y="-230.3" font-family="Times,serif" font-size="14.00">fool</text>
</g>
<!-- 8&#45;&#45;9 -->
<g id="edge14" class="edge">
<title>8&#45;&#45;9</title>
<path fill="none" stroke="black" d="M330.37,-292.32C350.43,-279.56 381.17,-259.99 401.04,-247.35"/>
</g>
<!-- 10 -->
<g id="node16" class="node">
<title>10</title>
<ellipse fill="none" stroke="black" cx="420.45" cy="-162" rx="28.7" ry="18"/>
<text text-anchor="middle" x="420.45" y="-158.3" font-family="Times,serif" font-size="14.00">foot</text>
</g>
<!-- 8&#45;&#45;10 -->
<g id="edge15" class="edge">
<title>8&#45;&#45;10</title>
<path fill="none" stroke="black" d="M322.64,-289.26C343.9,-261.82 387.48,-205.56 408.53,-178.38"/>
</g>
<!-- 11 -->
<g id="node17" class="node">
<title>11</title>
<ellipse fill="none" stroke="black" cx="306.45" cy="-234" rx="29.8" ry="18"/>
<text text-anchor="middle" x="306.45" y="-230.3" font-family="Times,serif" font-size="14.00">ford</text>
</g>
<!-- 8&#45;&#45;11 -->
<g id="edge16" class="edge">
<title>8&#45;&#45;11</title>
<path fill="none" stroke="black" d="M309.46,-287.7C308.84,-276.85 308.04,-262.92 307.42,-252.1"/>
</g>
<!-- 22 -->
<g id="node18" class="node">
<title>22</title>
<ellipse fill="none" stroke="black" cx="131.45" cy="-234" rx="35.19" ry="18"/>
<text text-anchor="middle" x="131.45" y="-230.3" font-family="Times,serif" font-size="14.00">wood</text>
</g>
<!-- 8&#45;&#45;22 -->
<g id="edge17" class="edge">
<title>8&#45;&#45;22</title>
<path fill="none" stroke="black" d="M285.56,-295.27C252.13,-282.19 192.95,-259.05 158.46,-245.56"/>
</g>
<!-- 9&#45;&#45;10 -->
<g id="edge18" class="edge">
<title>9&#45;&#45;10</title>
<path fill="none" stroke="black" d="M420.45,-215.7C420.45,-204.85 420.45,-190.92 420.45,-180.1"/>
</g>
<!-- 15 -->
<g id="node19" class="node">
<title>15</title>
<ellipse fill="none" stroke="black" cx="495.45" cy="-162" rx="28.7" ry="18"/>
<text text-anchor="middle" x="495.45" y="-158.3" font-family="Times,serif" font-size="14.00">foul</text>
</g>
<!-- 9&#45;&#45;15 -->
<g id="edge19" class="edge">
<title>9&#45;&#45;15</title>
<path fill="none" stroke="black" d="M435.62,-218.83C448.55,-206.77 467.04,-189.51 480.03,-177.38"/>
</g>
<!-- 10&#45;&#45;14 -->
<g id="edge20" class="edge">
<title>10&#45;&#45;14</title>
<path fill="none" stroke="black" d="M413.04,-144.33C404.85,-126.24 391.03,-96.65 377.45,-72 370.44,-59.28 361.73,-45.35 355.01,-34.97"/>
</g>
<!-- 11&#45;&#45;13 -->
<g id="edge22" class="edge">
<title>11&#45;&#45;13</title>
<path fill="none" stroke="black" d="M309.5,-215.79C312.05,-197.5 314.15,-167.98 306.45,-144 301.8,-129.56 291.61,-115.71 282.95,-105.8"/>
</g>
<!-- 11&#45;&#45;12 -->
<g id="edge21" class="edge">
<title>11&#45;&#45;12</title>
<path fill="none" stroke="black" d="M297.63,-216.76C291.58,-205.62 283.57,-190.87 277.48,-179.63"/>
</g>
<!-- 11&#45;&#45;14 -->
<g id="edge23" class="edge">
<title>11&#45;&#45;14</title>
<path fill="none" stroke="black" d="M312.33,-215.99C315.7,-205.69 319.79,-192.21 322.45,-180 333.74,-128.18 340.31,-65.64 343,-36.07"/>
</g>
<!-- 23 -->
<g id="node21" class="node">
<title>23</title>
<ellipse fill="none" stroke="black" cx="34.45" cy="-162" rx="34.39" ry="18"/>
<text text-anchor="middle" x="34.45" y="-158.3" font-family="Times,serif" font-size="14.00">word</text>
</g>
<!-- 11&#45;&#45;23 -->
<g id="edge24" class="edge">
<title>11&#45;&#45;23</title>
<path fill="none" stroke="black" d="M282.33,-223.27C275.35,-220.68 267.66,-218.03 260.45,-216 181.08,-193.64 157.65,-202.94 78.45,-180 72.63,-178.31 66.49,-176.18 60.72,-174"/>
</g>
<!-- 22&#45;&#45;23 -->
<g id="edge35" class="edge">
<title>22&#45;&#45;23</title>
<path fill="none" stroke="black" d="M111.82,-218.83C94.99,-206.69 70.87,-189.28 54.05,-177.14"/>
</g>
<!-- 16 -->
<g id="node22" class="node">
<title>16</title>
<ellipse fill="none" stroke="black" cx="495.45" cy="-90" rx="29.8" ry="18"/>
<text text-anchor="middle" x="495.45" y="-86.3" font-family="Times,serif" font-size="14.00">four</text>
</g>
<!-- 15&#45;&#45;16 -->
<g id="edge29" class="edge">
<title>15&#45;&#45;16</title>
<path fill="none" stroke="black" d="M495.45,-143.7C495.45,-132.85 495.45,-118.92 495.45,-108.1"/>
</g>
<!-- 23&#45;&#45;24 -->
<g id="edge36" class="edge">
<title>23&#45;&#45;24</title>
<path fill="none" stroke="black" d="M50.85,-146.07C80.73,-118.87 143.73,-61.52 173.8,-34.16"/>
</g>
<!-- 21 -->
<g id="node25" class="node">
<title>21</title>
<ellipse fill="none" stroke="black" cx="131.45" cy="-306" rx="32.49" ry="18"/>
<text text-anchor="middle" x="131.45" y="-302.3" font-family="Times,serif" font-size="14.00">wold</text>
</g>
<!-- 20&#45;&#45;21 -->
<g id="edge32" class="edge">
<title>20&#45;&#45;21</title>
<path fill="none" stroke="black" d="M168.31,-360.76C160.56,-349.46 150.26,-334.44 142.52,-323.15"/>
</g>
<!-- 21&#45;&#45;22 -->
<g id="edge33" class="edge">
<title>21&#45;&#45;22</title>
<path fill="none" stroke="black" d="M131.45,-287.7C131.45,-276.85 131.45,-262.92 131.45,-252.1"/>
</g>
<!-- 21&#45;&#45;23 -->
<g id="edge34" class="edge">
<title>21&#45;&#45;23</title>
<path fill="none" stroke="black" d="M117.29,-289.28C108.31,-279 96.69,-265.09 87.45,-252 70.33,-227.76 53.26,-197.8 43.29,-179.56"/>
</g>
</g>
</svg>
